<svg width="64" height="68" viewBox="0 0 64 68" fill="none" xmlns="http://www.w3.org/2000/svg">
<circle cx="32" cy="32" r="32" fill="white"/>
<path d="M47.0375 29.8826L29.0375 18.3168C28.7377 18.1168 28.3914 18.0073 28.0365 18.0004C27.6816 17.9934 27.3317 18.0892 27.025 18.2773C26.7138 18.457 26.4543 18.7218 26.2739 19.0436C26.0936 19.3655 25.9989 19.7326 26 20.1062V43.2641C25.9989 43.6378 26.0936 44.0049 26.2739 44.3268C26.4543 44.6486 26.7138 44.9133 27.025 45.0931C27.3317 45.2812 27.6816 45.377 28.0365 45.37C28.3914 45.3631 28.7377 45.2536 29.0375 45.0536L47.0375 33.4878C47.3325 33.3005 47.5766 33.0361 47.746 32.7202C47.9154 32.4044 48.0044 32.0479 48.0044 31.6852C48.0044 31.3225 47.9154 30.966 47.746 30.6501C47.5766 30.3343 47.3325 30.0699 47.0375 29.8826Z" fill="#050505"/>
</svg>
