<svg width="64" height="68" viewBox="0 0 64 68" fill="none" xmlns="http://www.w3.org/2000/svg">
<circle cx="32" cy="32" r="32" fill="white"/>
<path d="M45.0375 30.671L27.0375 19.1052C26.7377 18.9052 26.3914 18.7958 26.0365 18.7888C25.6816 18.7819 25.3317 18.8777 25.025 19.0658C24.7138 19.2455 24.4543 19.5102 24.2739 19.8321C24.0936 20.154 23.9989 20.521 24 20.8947V44.0526C23.9989 44.4263 24.0936 44.7934 24.2739 45.1152C24.4543 45.4371 24.7138 45.7018 25.025 45.8816C25.3317 46.0697 25.6816 46.1655 26.0365 46.1585C26.3914 46.1515 26.7377 46.0421 27.0375 45.8421L45.0375 34.2763C45.3325 34.0889 45.5766 33.8245 45.746 33.5087C45.9154 33.1929 46.0044 32.8364 46.0044 32.4737C46.0044 32.111 45.9154 31.7544 45.746 31.4386C45.5766 31.1228 45.3325 30.8584 45.0375 30.671Z" fill="#BA4949"/>
</svg>
