<svg width="32" height="35" viewBox="0 0 32 35" fill="none" xmlns="http://www.w3.org/2000/svg">
<path d="M26 5.89475V29.0526C26 29.3318 25.8946 29.5996 25.7071 29.797C25.5195 29.9944 25.2652 30.1053 25 30.1053C24.7348 30.1053 24.4804 29.9944 24.2929 29.797C24.1053 29.5996 24 29.3318 24 29.0526V19.3553L9.03747 28.9737C8.72391 29.1713 8.36541 29.2758 7.99997 29.2763C7.65855 29.2812 7.32205 29.1904 7.02497 29.0132C6.71275 28.8313 6.45281 28.5642 6.27246 28.2401C6.0921 27.916 5.99798 27.5467 5.99997 27.1711V7.77633C5.9995 7.40265 6.09352 7.03558 6.27239 6.7128C6.45125 6.39002 6.70851 6.12317 7.01774 5.93965C7.32698 5.75613 7.67704 5.66256 8.03199 5.66855C8.38694 5.67453 8.73398 5.77985 9.03747 5.9737L24 15.5921V5.89475C24 5.61557 24.1053 5.34783 24.2929 5.15043C24.4804 4.95302 24.7348 4.84212 25 4.84212C25.2652 4.84212 25.5195 4.95302 25.7071 5.15043C25.8946 5.34783 26 5.61557 26 5.89475Z" fill="white"/>
</svg>
